<svg xmlns="http://www.w3.org/2000/svg" width="98.23mm" height="56.81mm" viewBox="0 0 278.46 161.05">
  <defs>
    <style>
      .a {
        fill: #231f20;
      }

      .b {
        fill: #0e446e;
      }

      .c {
        fill: #134370;
      }
    </style>
  </defs>
  <title>bytekey-color</title>
  <g>
    <path class="a" d="M49.16,28.85H74.07q6.48,0,9.21,2.78A10.48,10.48,0,0,1,86,39.29V49.72a14.86,14.86,0,0,1-.89,5.41,5.83,5.83,0,0,1-3.34,3.33,5.66,5.66,0,0,1,3.34,3A12.61,12.61,0,0,1,86,66.55V78.2a10.51,10.51,0,0,1-2.72,7.67c-1.82,1.84-4.89,2.77-9.21,2.77H49.16ZM72.75,51.6V40.42a2.47,2.47,0,0,0-.56-1.84,3,3,0,0,0-2-.51H62.5V54h7.71a2.81,2.81,0,0,0,2-.56A2.48,2.48,0,0,0,72.75,51.6Zm0,25.48V65.51a2.46,2.46,0,0,0-.56-1.83,3,3,0,0,0-2-.52H62.5V79.43h7.71a2.76,2.76,0,0,0,2-.57A2.45,2.45,0,0,0,72.75,77.08Z" transform="translate(-40.38 -28.85)"/>
    <path class="a" d="M90.05,42.11h13.62l6.21,32.33,5.64-32.33h13.25l-11,47.66a16.23,16.23,0,0,1-4.89,8.36q-3.48,3-10.25,3h-7V91.36h5.83a7.77,7.77,0,0,0,3.34-.65,4.38,4.38,0,0,0,2-2.92l.47-1.78H101.7Z" transform="translate(-40.38 -28.85)"/>
    <path class="a" d="M153.59,42.11V52H129.53V42.11Zm-6-8.65V76.32a2.25,2.25,0,0,0,.57,1.74,2.71,2.71,0,0,0,1.88.52h3.57V88.64h-7.33c-4.27,0-7.3-.93-9.12-2.77a10.47,10.47,0,0,1-2.73-7.67V33.46Z" transform="translate(-40.38 -28.85)"/>
    <path class="a" d="M170.32,53.86V77a2.28,2.28,0,0,0,.56,1.74,2.92,2.92,0,0,0,2,.52h2.54v9.4h-5.74c-4.26,0-7.31-.93-9.16-2.77a10.37,10.37,0,0,1-2.78-7.67V52.54a10.39,10.39,0,0,1,2.78-7.61q2.77-2.82,9.16-2.82h5.92v9.4h-2.72a2.92,2.92,0,0,0-2,.52A2.43,2.43,0,0,0,170.32,53.86Zm21.9,7.42V69H161.3V61.28Zm-12.59,5.93V53.86a2.56,2.56,0,0,0-.52-1.83,2.72,2.72,0,0,0-1.93-.52h-2.35v-9.4h5.45q6.41,0,9.17,2.82a10.38,10.38,0,0,1,2.77,7.61V67.21Zm-.1,9.58v-3.1h12.6V78.2a10.41,10.41,0,0,1-2.77,7.67c-1.85,1.84-4.91,2.77-9.17,2.77h-5.36v-9.4h2.26a2.57,2.57,0,0,0,1.93-.57A2.76,2.76,0,0,0,179.53,76.79Z" transform="translate(-40.38 -28.85)"/>
    <path class="b" d="M199,28.85h13.44V88.64H199Zm27.73,29.52h-14l11.57-29.52h14.47Zm-14,0h14l12,30.27H224.28Z" transform="translate(-40.38 -28.85)"/>
    <path class="b" d="M255.29,53.86V77a2.25,2.25,0,0,0,.57,1.74,2.87,2.87,0,0,0,2,.52h2.54v9.4h-5.73c-4.27,0-7.32-.93-9.17-2.77a10.37,10.37,0,0,1-2.77-7.67V52.54a10.38,10.38,0,0,1,2.77-7.61q2.78-2.82,9.17-2.82h5.92v9.4h-2.73a2.87,2.87,0,0,0-2,.52A2.38,2.38,0,0,0,255.29,53.86Zm21.91,7.42V69H246.27V61.28Zm-12.6,5.93V53.86a2.52,2.52,0,0,0-.52-1.83,2.68,2.68,0,0,0-1.92-.52h-2.35v-9.4h5.45q6.39,0,9.16,2.82a10.39,10.39,0,0,1,2.78,7.61V67.21Zm-.09,9.58v-3.1H277.1V78.2a10.37,10.37,0,0,1-2.77,7.67c-1.85,1.84-4.9,2.77-9.17,2.77h-5.35v-9.4h2.25a2.57,2.57,0,0,0,1.93-.57A2.76,2.76,0,0,0,264.51,76.79Z" transform="translate(-40.38 -28.85)"/>
    <path class="b" d="M280.11,42.11h13.63l6.2,32.33,5.64-32.33h13.26l-11,47.66A16.09,16.09,0,0,1,303,98.13q-3.48,3-10.25,3h-7.05V91.36h5.83a7.77,7.77,0,0,0,3.34-.65,4.34,4.34,0,0,0,2-2.92l.47-1.78h-5.55Z" transform="translate(-40.38 -28.85)"/>
  </g>
  <g>
    <path class="c" d="M70.67,173a37.34,37.34,0,0,1-11.9-1.83A30.85,30.85,0,0,1,49.14,166a24.21,24.21,0,0,1-6.45-7.73,20.5,20.5,0,0,1-2.31-9.66A13.83,13.83,0,0,1,42.86,140a8.29,8.29,0,0,1,7-3.25,8.54,8.54,0,0,1,2.8.42,8.28,8.28,0,0,1,2,1,3.06,3.06,0,0,1,1,1,12.8,12.8,0,0,0-1.52,1.73,11.79,11.79,0,0,0-1.69,3.2,12.94,12.94,0,0,0-.73,4.45,13.31,13.31,0,0,0,1.25,5.66,14.3,14.3,0,0,0,3.65,4.8,18,18,0,0,0,5.94,3.34,24.12,24.12,0,0,0,8.07,1.25,31.09,31.09,0,0,0,9.21-1.35,33.16,33.16,0,0,0,7.8-3.48A20.88,20.88,0,0,0,93,154.09a7.78,7.78,0,0,0,2-4.76l11.24-.69a15.43,15.43,0,0,1-2,7.52,25.18,25.18,0,0,1-5.42,6.66,36.89,36.89,0,0,1-8,5.35,45.62,45.62,0,0,1-9.69,3.55A43.72,43.72,0,0,1,70.67,173ZM58,189.9a5.85,5.85,0,0,1-4-1.27,4.28,4.28,0,0,1-1.49-3.42,6.47,6.47,0,0,1,2.11-5,7.5,7.5,0,0,1,5.28-1.94,5.79,5.79,0,0,1,4,1.31A4.4,4.4,0,0,1,65.36,183a6.49,6.49,0,0,1-2.07,5A7.47,7.47,0,0,1,58,189.9Zm13.87,0a5.85,5.85,0,0,1-4-1.27,4.28,4.28,0,0,1-1.49-3.42,6.47,6.47,0,0,1,2.11-5,7.5,7.5,0,0,1,5.28-1.94,5.89,5.89,0,0,1,4,1.31A4.4,4.4,0,0,1,79.3,183a6.45,6.45,0,0,1-2.11,5A7.6,7.6,0,0,1,71.84,189.9Zm20.63-36.84a38.52,38.52,0,0,1-6.69-.45A5.67,5.67,0,0,1,82.4,151a4.72,4.72,0,0,1-1-3.14,10,10,0,0,1,.42-2.86,8.72,8.72,0,0,1,1.24-2.59,32.84,32.84,0,0,0,3.28.66c1.08.16,2.31.29,3.69.38s3,.14,4.9.14h19.66l-1.51,9.45Zm20.57,0,1.58-9.45c.69,0,1.11.41,1.24,1.24a11.81,11.81,0,0,1-.13,3.52,15.69,15.69,0,0,1-1,3.41A1.85,1.85,0,0,1,113,153.06Z" transform="translate(-40.38 -28.85)"/>
    <path class="c" d="M113.17,153.06c-.69,0-1.1-.43-1.24-1.28a11.58,11.58,0,0,1,.14-3.48,12.28,12.28,0,0,1,1-3.42,1.85,1.85,0,0,1,1.65-1.27Zm0,0,1.52-9.45h52.17l-1.18,1.31c.1-1.15.2-2.41.31-3.76s.18-2.59.18-3.7c0-1.84-.26-3.07-.76-3.69a3.22,3.22,0,0,0-2.62-.93H134.15a16.23,16.23,0,0,1-6.62-1.31,9.83,9.83,0,0,1-4.73-4.66q-1.76-3.34-1.76-9.21a51.88,51.88,0,0,1,.31-5.55q.32-2.94.72-5.56c.28-1.75.53-3.15.76-4.21a40.66,40.66,0,0,0,4.77.73,78.09,78.09,0,0,0,8.41.38c2,0,4.29,0,6.8-.14l7.8-.31q4-.18,7.9-.31t7-.14a40,40,0,0,1,6.24.38,4.87,4.87,0,0,1,3.11,1.48,5.25,5.25,0,0,1,.86,3.25,13.34,13.34,0,0,1-.35,3,10.18,10.18,0,0,1-1,2.76,39.85,39.85,0,0,0-5.59-.86q-3.39-.31-7.45-.31c-1.57,0-3.43.05-5.59.14s-4.42.17-6.76.24-4.65.15-6.9.24-4.28.16-6.08.21-3.19.07-4.21.07l1.11-.83a29.18,29.18,0,0,0-.55,3,21.7,21.7,0,0,0-.28,3.24c0,1.84.44,3.12,1.31,3.83a5.18,5.18,0,0,0,3.38,1.07h30.91q4.69,0,7.28,2.65t2.59,8.94c0,1.2-.06,2.44-.17,3.73s-.24,2.53-.38,3.72-.28,2.33-.41,3.38l-4.7,7.25Zm67.42,0a6.16,6.16,0,0,1-4.66-1.62,7.36,7.36,0,0,1-1.76-4.73l4.21,2.76H170l7.38-11.73a6.31,6.31,0,0,0,1.38,4.28,5.1,5.1,0,0,0,4.07,1.59h6.28l-1.58,9.45Zm7,0,1.58-9.45c.69,0,1.11.41,1.25,1.24a11.38,11.38,0,0,1-.21,3.52,12.3,12.3,0,0,1-1,3.41A1.87,1.87,0,0,1,187.56,153.06Z" transform="translate(-40.38 -28.85)"/>
    <path class="a" d="M187.62,153.06c-.69,0-1.1-.43-1.24-1.28a11.58,11.58,0,0,1,.14-3.48,12.28,12.28,0,0,1,1-3.42,1.85,1.85,0,0,1,1.65-1.27Zm0,0,1.52-9.45h11.8l-3.72,3.72v-3.86a21.07,21.07,0,0,1,.38-4c.25-1.36.54-2.73.86-4.11s.65-2.74,1-4.1.62-2.7.83-4a26,26,0,0,0,.31-3.86,17.31,17.31,0,0,0-.31-3.28,9.57,9.57,0,0,0-.87-2.59,32.41,32.41,0,0,1,4.8-2,14.52,14.52,0,0,1,4.31-.76,4.25,4.25,0,0,1,3.38,1.21,5.33,5.33,0,0,1,1,3.55,19,19,0,0,1-.52,4.18c-.35,1.54-.74,3.13-1.17,4.76s-.83,3.23-1.18,4.8a20.49,20.49,0,0,0-.51,4.34,6.63,6.63,0,0,0,1.34,4.45,5,5,0,0,0,4,1.56h4.83l-1.52,9.45h-6.21a6.08,6.08,0,0,1-4.59-1.62,7.67,7.67,0,0,1-1.83-4.73l2.9,2.76h-2.9l-2.34,3.59Zm13.87-44.51a5.62,5.62,0,0,1-3.93-1.31,4.33,4.33,0,0,1-1.45-3.38,6.49,6.49,0,0,1,2.11-5.07,7.6,7.6,0,0,1,5.27-1.9,5.79,5.79,0,0,1,4,1.31,4.4,4.4,0,0,1,1.49,3.45,6.45,6.45,0,0,1-2.11,5A7.6,7.6,0,0,1,201.49,108.55Zm13.94,0a5.76,5.76,0,0,1-4-1.31,4.29,4.29,0,0,1-1.48-3.38,6.51,6.51,0,0,1,2.1-5.07,7.64,7.64,0,0,1,5.28-1.9,5.79,5.79,0,0,1,4,1.31,4.39,4.39,0,0,1,1.48,3.45,6.49,6.49,0,0,1-2.07,5A7.46,7.46,0,0,1,215.43,108.55Zm2.83,44.51,1.59-9.45c.69,0,1.1.41,1.24,1.24a11.88,11.88,0,0,1-.14,3.52,14.05,14.05,0,0,1-1,3.41A1.89,1.89,0,0,1,218.26,153.06Z" transform="translate(-40.38 -28.85)"/>
    <path class="a" d="M222,170.24a5.88,5.88,0,0,1-4-1.28,4.28,4.28,0,0,1-1.49-3.41,6.54,6.54,0,0,1,2.11-5,7.49,7.49,0,0,1,5.28-1.93,5.76,5.76,0,0,1,4,1.31,4.4,4.4,0,0,1,1.48,3.45,6.5,6.5,0,0,1-2.07,5A7.51,7.51,0,0,1,222,170.24Zm-3.66-17.18c-.69,0-1.11-.43-1.24-1.28a11.51,11.51,0,0,1,.13-3.48,13,13,0,0,1,1-3.42,1.87,1.87,0,0,1,1.66-1.27Zm0,0,1.52-9.45h12.76l-3.86,1.44c.14-1.7.34-3.49.62-5.38s.61-3.76,1-5.62.78-3.61,1.17-5.24.74-3.08,1-4.32.54-2.21.72-2.9l.14,3.52-4.42-6a23,23,0,0,1,5.59-3.1,16,16,0,0,1,5.8-1.18,5,5,0,0,1,3.48,1A4.1,4.1,0,0,1,245,119a18.35,18.35,0,0,1-.41,3.07c-.28,1.41-.65,3.06-1.11,5s-.93,4-1.41,6.11-.91,4.34-1.28,6.55-.62,4.28-.76,6.21l-4.69,7.18Zm17.52,17.18a5.87,5.87,0,0,1-4-1.28,4.28,4.28,0,0,1-1.49-3.41,6.51,6.51,0,0,1,2.11-5,7.49,7.49,0,0,1,5.28-1.93,5.84,5.84,0,0,1,4,1.31,4.37,4.37,0,0,1,1.49,3.45,6.43,6.43,0,0,1-2.11,5A7.62,7.62,0,0,1,235.85,170.24Z" transform="translate(-40.38 -28.85)"/>
    <path class="a" d="M260.07,153.06a5.59,5.59,0,0,1-4.79-2.07,9,9,0,0,1-1.55-5.52A42.62,42.62,0,0,1,254,141q.3-2.82.86-6.45t1.21-7.59q.64-4,1.34-8c.46-2.66.91-5.22,1.35-7.66s.81-4.62,1.14-6.55l1.86,5-5.73-7.73a25.36,25.36,0,0,1,5.45-3,15.21,15.21,0,0,1,5.73-1.17,5.28,5.28,0,0,1,3.66,1,4.19,4.19,0,0,1,1.1,3.18,24.45,24.45,0,0,1-.48,4.14q-.5,2.63-1.21,6.07t-1.55,7.38c-.55,2.62-1.07,5.32-1.56,8.08s-.88,5.47-1.2,8.14a64,64,0,0,0-.49,7.59,19.62,19.62,0,0,0,.21,3.21,7.15,7.15,0,0,0,.62,2,7.69,7.69,0,0,0,1.11,1.55,10.38,10.38,0,0,1-3.52,2.14A11.46,11.46,0,0,1,260.07,153.06Zm13.11,0a25.75,25.75,0,0,1-6-.73,34.21,34.21,0,0,1-6.39-2.24l3.11-6.48h13.38l-1.58,9.45Zm2.49,0,1.58-9.45c.69,0,1.11.41,1.25,1.24a11.07,11.07,0,0,1-.21,3.52,12.3,12.3,0,0,1-1,3.41A1.87,1.87,0,0,1,275.67,153.06Z" transform="translate(-40.38 -28.85)"/>
    <path class="a" d="M275.74,153.06c-.69,0-1.11-.43-1.25-1.28a11.92,11.92,0,0,1,.14-3.48,12.28,12.28,0,0,1,1-3.42,1.85,1.85,0,0,1,1.65-1.27Zm0,0,1.51-9.45H290l-3.87,1.44q.21-2.55.63-5.38c.27-1.88.61-3.76,1-5.62s.78-3.61,1.17-5.24.73-3.08,1-4.32.54-2.21.73-2.9l.14,3.52-4.42-6A22.59,22.59,0,0,1,292,116a15.93,15.93,0,0,1,5.8-1.18,5,5,0,0,1,3.48,1,4.14,4.14,0,0,1,1.07,3.14A18.35,18.35,0,0,1,302,122c-.28,1.41-.65,3.06-1.11,5s-.93,4-1.41,6.11-.91,4.34-1.28,6.55-.62,4.28-.76,6.21l-4.69,7.18Zm10.48,17.18a5.67,5.67,0,0,1-3.93-1.31,4.27,4.27,0,0,1-1.45-3.31,6.59,6.59,0,0,1,2.11-5.11,7.49,7.49,0,0,1,5.28-1.93,5.74,5.74,0,0,1,4,1.31,4.37,4.37,0,0,1,1.49,3.45,6.41,6.41,0,0,1-2.11,5A7.65,7.65,0,0,1,286.22,170.24Z" transform="translate(-40.38 -28.85)"/>
  </g>
</svg>
